<svg width="29" height="54" viewBox="0 0 29 54" fill="none" xmlns="http://www.w3.org/2000/svg">
<path fill-rule="evenodd" clip-rule="evenodd" d="M0.937567 0.941077C0.352739 1.52782 0.354294 2.47757 0.941038 3.06239L25.6488 27.6895C26.2356 28.2743 27.1853 28.2727 27.7702 27.686C28.355 27.0992 28.3534 26.1495 27.7667 25.5647L3.05889 0.937606C2.47214 0.352779 1.52239 0.354333 0.937567 0.941077Z" fill="#0011AE"/>
<path fill-rule="evenodd" clip-rule="evenodd" d="M28.0624 26.314C28.6473 26.9007 28.6457 27.8505 28.059 28.4353L3.35116 53.0624C2.76442 53.6472 1.81467 53.6457 1.22984 53.0589C0.645015 52.4722 0.646569 51.5224 1.23331 50.9376L25.9411 26.3105C26.5279 25.7257 27.4776 25.7273 28.0624 26.314Z" fill="#0011AE"/>
</svg>
