<svg width="181" height="181" viewBox="0 0 181 181" fill="none" xmlns="http://www.w3.org/2000/svg">
<circle cx="90.1827" cy="90.1827" r="90.1827" fill="#F2F7FF"/>
<path d="M80.9912 56.1167V58.6229C80.9912 60.845 81.7313 63.0038 83.0947 64.7585L103.561 91.0986C106.336 94.6698 109.348 98.796 108.086 103.139C107.482 105.216 106.124 107.193 103.581 108.341C99.1408 110.346 93.4304 111.408 89.3115 112.353C87.5961 112.746 86.444 114.292 86.444 116.052V125.354" stroke="#003188" stroke-width="2.5" stroke-linecap="round" stroke-linejoin="round"/>
<path d="M96.2629 105.344H85.889C84.027 106.244 81.5008 108.044 75.9149 108.044C70.7273 108.044 66.7356 104.958 66.7354 99.9416C66.7351 95.6797 68.7325 91.0669 79.5054 91.8386" stroke="#003188" stroke-width="2.5" stroke-linecap="round" stroke-linejoin="round"/>
<path d="M116.476 92.349L129.866 105.739" stroke="#003188" stroke-width="2.5" stroke-linecap="round" stroke-linejoin="round"/>
<path d="M116.473 105.739L129.863 92.3492" stroke="#003188" stroke-width="2.5" stroke-linecap="round" stroke-linejoin="round"/>
</svg>
