<svg width="181" height="181" viewBox="0 0 181 181" fill="none" xmlns="http://www.w3.org/2000/svg">
<circle cx="90.1827" cy="90.1827" r="90.1827" fill="#F2F7FF"/>
<path d="M41.1191 68.5388L54.5093 81.929" stroke="#003188" stroke-width="2.5" stroke-linecap="round" stroke-linejoin="round"/>
<path d="M41.1182 81.9291L54.5084 68.5389" stroke="#003188" stroke-width="2.5" stroke-linecap="round" stroke-linejoin="round"/>
<path d="M89.8198 120.524C96.803 120.511 103.815 118.848 110.354 116.488C113.555 115.333 116.699 113.981 119.699 112.371C122.201 111.027 124.642 109.494 126.777 107.612C127.627 106.863 128.402 106.045 129.079 105.134C129.598 104.438 129.954 103.665 129.996 102.784C130.05 101.675 129.554 100.771 128.922 99.9063C126.867 97.094 124.352 94.6805 121.45 92.7523C116.804 89.664 111.37 87.9783 105.865 87.3065C104.181 87.1012 102.464 86.9676 100.767 87.0069C97.9814 87.0707 95.2383 88.1335 92.676 89.1276C91.6734 89.5166 90.6788 89.9233 89.6861 90.3368C89.8955 90.3368 90.1038 90.3368 90.3132 90.3368C87.3194 89.0883 84.2087 87.7043 80.9819 87.1876C79.2226 86.9047 77.4309 87 75.6617 87.1493C70.4556 87.5894 65.2926 88.9331 60.6948 91.4547C57.8357 93.0224 55.2105 95.0636 53.0285 97.4889C52.4192 98.1657 51.8481 98.8749 51.3017 99.6028C50.6569 100.46 50.0977 101.288 50.0102 102.391C49.8883 103.94 50.882 105.173 51.8088 106.296C53.3489 108.163 55.2321 109.739 57.1988 111.138C59.6038 112.848 62.2104 114.271 64.9083 115.462C71.7785 118.493 79.2167 120.098 86.709 120.451C87.7459 120.5 88.7829 120.523 89.8198 120.524C91.3373 120.526 91.3403 118.168 89.8198 118.166C82.4464 118.156 75.074 116.928 68.1802 114.281C65.4882 113.247 62.7755 111.926 60.2574 110.349C59.7021 110.001 59.1557 109.64 58.619 109.265C58.3763 109.095 58.1355 108.922 57.8966 108.745C57.7649 108.648 57.6342 108.549 57.5045 108.451C57.4809 108.434 57.302 108.296 57.4101 108.38C57.5202 108.465 57.2971 108.291 57.2764 108.274C56.3634 107.554 55.4876 106.784 54.6729 105.953C54.3161 105.59 53.9711 105.215 53.6418 104.827C53.4865 104.643 53.3352 104.455 53.1858 104.268C53.0846 104.14 53.3145 104.44 53.2192 104.31C53.1868 104.266 53.1534 104.222 53.1209 104.179C53.0413 104.072 52.9627 103.963 52.885 103.854C52.5155 103.329 52.202 102.803 52.4359 102.159C52.6855 101.473 53.2949 100.83 53.749 100.269C55.7432 97.8003 58.0617 95.7807 60.7243 94.1619C63.1618 92.6796 65.4577 91.7052 68.1743 90.9075C69.3695 90.5559 70.5833 90.2671 71.808 90.0343C72.3515 89.9311 72.8979 89.8398 73.4454 89.7592C73.5683 89.7416 73.6921 89.7239 73.815 89.7062C74.1157 89.663 73.6312 89.7298 73.8199 89.7062C73.8798 89.6983 73.9398 89.6905 73.9997 89.6836C74.2622 89.6512 74.5246 89.6207 74.788 89.5922C76.3792 89.4233 78.0324 89.2779 79.6335 89.385C79.7583 89.3938 79.8841 89.4046 80.0089 89.4174C80.0905 89.4262 80.4423 89.4773 80.1298 89.4292C80.4089 89.4714 80.6861 89.5186 80.9623 89.5746C81.5618 89.6964 82.1535 89.8516 82.7403 90.0235C84.3482 90.496 85.9188 91.0912 87.4747 91.7101C87.9179 91.8869 88.3602 92.0657 88.8025 92.2474C89.0355 92.3436 89.2674 92.4556 89.5053 92.5381C89.9358 92.6874 90.2513 92.6383 90.6699 92.4645C91.5938 92.0814 92.5197 91.7052 93.4524 91.3456C94.9169 90.7808 96.399 90.2425 97.9175 89.8388C98.4719 89.6915 99.0311 89.5638 99.5972 89.4714C99.6975 89.4547 100.007 89.4154 99.7299 89.4478C99.8577 89.4321 99.9864 89.4174 100.115 89.4056C100.357 89.383 100.601 89.3693 100.843 89.3663C101.552 89.3555 102.263 89.3811 102.97 89.4174C103.892 89.4645 104.813 89.5431 105.73 89.6522C105.864 89.6679 105.998 89.6856 106.131 89.7023C106.19 89.7091 106.362 89.7327 106.09 89.6964C106.151 89.7042 106.212 89.7131 106.274 89.7219C106.556 89.7622 106.837 89.8034 107.118 89.8496C107.677 89.94 108.235 90.0421 108.789 90.1561C110.031 90.4115 111.261 90.7278 112.471 91.1079C113.098 91.3054 113.72 91.5195 114.335 91.7523C115.063 92.0273 115.457 92.1924 116.109 92.49C118.823 93.7326 121.315 95.3308 123.46 97.3003C124.639 98.3837 125.75 99.5812 126.703 100.857C127.142 101.444 127.75 102.1 127.624 102.856C127.571 103.177 127.407 103.431 127.224 103.693C127.164 103.779 127.099 103.862 127.04 103.948C127.004 103.999 126.903 104.121 127.077 103.902C127.026 103.967 126.975 104.032 126.923 104.095C126.258 104.908 125.492 105.635 124.688 106.309C124.462 106.498 124.232 106.683 124 106.866C123.854 106.98 124.132 106.765 123.984 106.878C123.912 106.933 123.84 106.987 123.768 107.041C123.635 107.14 123.502 107.237 123.369 107.334C122.823 107.729 122.266 108.106 121.699 108.47C119.142 110.11 116.414 111.483 113.627 112.684C107.644 115.264 100.913 117.215 94.4569 117.909C92.9158 118.074 91.3678 118.167 89.8178 118.17C88.3022 118.169 88.2993 120.527 89.8198 120.524Z" fill="#003188"/>
<path d="M128.523 102.121C123.718 100.387 118.677 99.6421 113.58 100.064C108.847 100.457 104.214 101.594 99.5242 102.292C93.8364 103.14 88.0435 103.225 82.2957 102.563C77.3608 101.995 72.4829 100.874 67.5372 100.298C62.7713 99.7433 57.972 99.9564 53.3811 101.438C52.7383 101.645 52.1044 101.875 51.4763 102.121C50.8837 102.353 50.4709 102.911 50.6527 103.571C50.808 104.136 51.5068 104.628 52.1034 104.394C56.6501 102.614 61.1683 102.082 66.0216 102.502C68.3176 102.7 70.4179 103.049 72.7483 103.448C75.2202 103.873 77.6901 104.314 80.1767 104.652C83.0742 105.046 85.9834 105.321 88.9074 105.386C91.8255 105.45 94.7515 105.258 97.648 104.905C100.188 104.597 102.707 104.163 105.223 103.701C106.348 103.495 107.473 103.285 108.6 103.091C109.161 102.995 109.722 102.902 110.285 102.816C110.542 102.777 110.8 102.738 111.058 102.702C111.378 102.657 111.42 102.652 111.775 102.608C116.581 102.018 121.192 102.298 125.802 103.694C126.507 103.907 127.204 104.143 127.897 104.392C128.497 104.609 129.189 104.149 129.348 103.569C129.527 102.917 129.125 102.338 128.523 102.121Z" fill="#003188"/>
</svg>
