<svg width="26" height="26" viewBox="0 0 26 26" fill="none" xmlns="http://www.w3.org/2000/svg">
<path d="M20.1798 11.092C20.2048 8.07947 17.6391 5.31801 14.461 4.93572C14.3975 4.92843 14.3287 4.91697 14.2558 4.90447C14.096 4.87389 13.934 4.85647 13.7714 4.85239C13.1193 4.85239 12.9454 5.31072 12.8996 5.58259C12.8548 5.84822 12.8975 6.07218 13.0256 6.24614C13.2412 6.53884 13.6214 6.59093 13.9266 6.6326C14.0152 6.6451 14.0996 6.65655 14.1704 6.67218C17.0266 7.31072 17.9881 8.31385 18.4579 11.1461C18.4694 11.2149 18.4746 11.3003 18.4808 11.3909C18.5016 11.7295 18.5433 12.4336 19.3006 12.4336C19.3631 12.4336 19.4319 12.4284 19.5027 12.418C20.2069 12.3107 20.185 11.667 20.1746 11.3576C20.1714 11.2701 20.1683 11.1878 20.1766 11.1326C20.1783 11.1188 20.179 11.1048 20.1787 11.0909L20.1798 11.092Z" fill="#0011AE"/>
<path d="M13.586 3.83054C13.6714 3.83679 13.7506 3.84304 13.8173 3.85241C18.5079 4.57429 20.6652 6.79616 21.2621 11.5232C21.2725 11.6035 21.2746 11.7014 21.2756 11.8045C21.2819 12.1743 21.2944 12.943 22.1194 12.9587H22.1444C22.4037 12.9587 22.6089 12.8805 22.7569 12.7264C23.0131 12.4587 22.9964 12.0597 22.9808 11.7389C22.9777 11.6597 22.9746 11.5857 22.9746 11.5201C23.035 6.68679 18.8496 2.30241 14.0204 2.13991C13.9996 2.13991 13.9808 2.13991 13.9621 2.14304C13.9431 2.14544 13.9239 2.14648 13.9048 2.14616C13.8558 2.14616 13.7975 2.142 13.7339 2.13783C13.6589 2.13262 13.5725 2.12637 13.4839 2.12637C12.7152 2.12637 12.5694 2.67325 12.5506 2.99929C12.5079 3.75241 13.236 3.80554 13.586 3.83054ZM21.036 17.6326C20.9354 17.5561 20.8357 17.4783 20.7371 17.3993C20.2246 16.9868 19.6798 16.6076 19.1537 16.2399L18.8256 16.0107C18.1506 15.5368 17.5444 15.3066 16.9714 15.3066C16.1985 15.3066 15.5256 15.7337 14.9694 16.5743C14.7235 16.9472 14.4246 17.1285 14.0569 17.1285C13.8015 17.1195 13.5508 17.0567 13.3214 16.9441C11.1444 15.9566 9.58811 14.442 8.69853 12.443C8.26832 11.4764 8.4079 10.8451 9.16415 10.3305C9.59436 10.0389 10.3933 9.49616 10.3381 8.45554C10.2735 7.27533 7.66832 3.72221 6.5704 3.31908C6.10105 3.14787 5.58657 3.1464 5.11624 3.31491C3.85478 3.73887 2.95061 4.48471 2.49749 5.46908C2.05999 6.42116 2.08082 7.53887 2.55374 8.70137C3.92353 12.0628 5.84853 14.9941 8.27665 17.4128C10.6527 19.7805 13.5735 21.7191 16.9569 23.1764C17.2621 23.3076 17.5819 23.3795 17.8162 23.4316C17.8954 23.4493 17.9642 23.4649 18.0142 23.4785C18.0417 23.4859 18.07 23.4897 18.0985 23.4899H18.1256C19.7173 23.4899 21.6287 22.0357 22.2152 20.3785C22.7298 18.9264 21.7902 18.2087 21.036 17.6326ZM14.2902 7.67116C14.0183 7.67741 13.4506 7.692 13.2517 8.26908C13.1579 8.53991 13.1694 8.77325 13.285 8.96596C13.4537 9.24721 13.7777 9.33471 14.0714 9.38262C15.1392 9.55346 15.6881 10.143 15.7975 11.2399C15.8485 11.7503 16.1933 12.1076 16.6339 12.1076C16.6674 12.1076 16.7008 12.1055 16.7339 12.1014C17.2652 12.0389 17.5225 11.6482 17.4996 10.941C17.5079 10.2035 17.1225 9.36596 16.4652 8.69929C15.8069 8.03054 15.0131 7.65346 14.2902 7.67116Z" fill="#0011AE"/>
</svg>
