<svg width="26" height="26" viewBox="0 0 26 26" fill="none" xmlns="http://www.w3.org/2000/svg">
<g clip-path="url(#clip0_24_669)">
<path d="M24.6316 6.94079C24.3503 7.82517 23.9711 8.59496 23.4961 9.29392L23.5159 9.26267C23.0493 10.0404 22.492 10.9391 21.8441 11.9585C21.2885 12.7634 20.9944 13.18 20.9618 13.2085C20.818 13.3887 20.718 13.6095 20.6836 13.8522L20.6826 13.8595C20.7107 14.0804 20.8128 14.2731 20.9618 14.4168L21.3784 14.8814C23.6076 17.1724 24.8614 18.7516 25.1399 19.6189C25.1764 19.7147 25.1972 19.8252 25.1972 19.9408C25.1972 20.1429 25.1326 20.3293 25.0232 20.4825L25.0253 20.4793C24.842 20.6679 24.5857 20.7845 24.3024 20.7845C24.2711 20.7845 24.2389 20.7835 24.2086 20.7804H24.2128H21.4722C21.4711 20.7804 21.4691 20.7804 21.467 20.7804C21.1159 20.7804 20.793 20.6575 20.5399 20.4533L20.543 20.4554C20.1743 20.1522 19.8461 19.8241 19.5524 19.4679L19.543 19.4554C19.0632 18.913 18.6375 18.4564 18.2659 18.0856C17.0284 16.9092 16.1152 16.321 15.5264 16.321C15.5045 16.3189 15.4795 16.3179 15.4534 16.3179C15.2816 16.3179 15.1211 16.371 14.9889 16.4616L14.992 16.4595C14.8836 16.595 14.818 16.77 14.818 16.9585C14.818 16.996 14.8201 17.0314 14.8253 17.0679V17.0637C14.7972 17.3908 14.7805 17.771 14.7805 18.1554C14.7805 18.2793 14.7826 18.4022 14.7857 18.5252V18.5075V19.7147C14.7961 19.7637 14.8024 19.82 14.8024 19.8772C14.8024 20.1293 14.6878 20.3543 14.5086 20.5033L14.5076 20.5043C14.1045 20.6887 13.6336 20.797 13.1368 20.797C13.0305 20.797 12.9264 20.7918 12.8232 20.7825L12.8368 20.7835C11.1972 20.7522 9.67636 20.272 8.38365 19.4627L8.4201 19.4835C6.84615 18.5272 5.54198 17.2825 4.54823 15.8116L4.52011 15.7679C3.57636 14.5158 2.69615 13.1012 1.94615 11.6095L1.87323 11.4491C1.43469 10.6137 0.980522 9.58663 0.588855 8.53038L0.526355 8.33767C0.36698 7.86267 0.251355 7.31059 0.203438 6.73871L0.201355 6.71267C0.201355 6.18628 0.511077 5.92309 1.13052 5.92309H3.87011C3.89511 5.921 3.92427 5.91996 3.95448 5.91996C4.21281 5.91996 4.45136 6.0085 4.6399 6.15746L4.63781 6.15538C4.84615 6.3835 5.00031 6.66371 5.07636 6.97621L5.07948 6.98871C5.58365 8.41267 6.11802 9.6085 6.73261 10.7543L6.66281 10.6116C7.1649 11.622 7.72011 12.4918 8.35344 13.295L8.32948 13.2627C8.88504 13.9446 9.31837 14.2856 9.62948 14.2856C9.63885 14.2866 9.65031 14.2866 9.66281 14.2866C9.81698 14.2866 9.95135 14.2033 10.0243 14.0783L10.0253 14.0762C10.1024 13.8783 10.1472 13.6481 10.1472 13.4085C10.1472 13.3575 10.1451 13.3064 10.1409 13.2564V13.2627V9.22204C10.1191 8.746 10.0024 8.30121 9.80761 7.90225L9.81594 7.92204C9.68677 7.64704 9.53156 7.40954 9.34719 7.19809L9.35031 7.20225C9.17948 7.03142 9.06281 6.80746 9.02636 6.55746L9.02531 6.55121C9.02531 6.37413 9.10656 6.21475 9.23365 6.11059L9.23469 6.10954C9.36073 5.99392 9.52948 5.92413 9.71386 5.92413H9.72219H14.0409C14.0639 5.921 14.0899 5.91996 14.117 5.91996C14.3201 5.91996 14.5024 6.01163 14.6232 6.15538L14.6243 6.15642C14.7316 6.35225 14.7951 6.58663 14.7951 6.83454C14.7951 6.87413 14.793 6.91267 14.7899 6.95121V6.946V12.3345C14.7878 12.3595 14.7868 12.3887 14.7868 12.4179C14.7868 12.6095 14.8399 12.7897 14.9316 12.9429L14.9295 12.9387C15.0055 13.0512 15.1326 13.1241 15.2764 13.1241H15.2774C15.4607 13.1116 15.6274 13.0512 15.768 12.9554L15.7649 12.9575C16.0482 12.7627 16.292 12.5408 16.5034 12.2897L16.5076 12.2845C17.1399 11.57 17.7232 10.7804 18.2316 9.94079L18.2722 9.86788C18.6305 9.27413 19.018 8.54288 19.3691 7.79183L19.4336 7.63871L19.8982 6.70954C20.0597 6.24496 20.493 5.91788 21.0024 5.91788C21.0222 5.91788 21.042 5.91788 21.0618 5.91892H21.0586H23.7993C24.5395 5.91892 24.8173 6.25954 24.6326 6.94079H24.6316Z" fill="#0011AE"/>
</g>
<defs>
<clipPath id="clip0_24_669">
<rect width="25" height="25" fill="white" transform="translate(0.201355 0.917877)"/>
</clipPath>
</defs>
</svg>
