<svg width="26" height="26" viewBox="0 0 26 26" fill="none" xmlns="http://www.w3.org/2000/svg">
<g clip-path="url(#clip0_24_666)">
<path d="M24.2056 5.77717C23.3031 4.70443 21.637 4.26685 18.4551 4.26685H6.90467C3.64991 4.26685 1.95556 4.73265 1.05653 5.87475C0.179993 6.9883 0.179993 8.62902 0.179993 10.8998V15.228C0.179993 19.6273 1.21999 21.8609 6.90467 21.8609H18.4552C21.2145 21.8609 22.7435 21.4748 23.7327 20.5281C24.7472 19.5573 25.18 17.9722 25.18 15.228V10.8998C25.18 8.50507 25.1122 6.85467 24.2056 5.77717ZM16.2301 13.6614L10.9851 16.4027C10.8678 16.4639 10.7396 16.4943 10.6115 16.4943C10.4665 16.4943 10.3218 16.4553 10.1937 16.3777C9.95241 16.2315 9.80507 15.97 9.80507 15.6879V10.2231C9.80507 9.94144 9.95201 9.68015 10.1928 9.53386C10.4337 9.38757 10.7333 9.37757 10.9832 9.50741L16.2282 12.231C16.4951 12.3695 16.6627 12.645 16.6631 12.9456C16.6634 13.2464 16.4965 13.5223 16.2301 13.6614Z" fill="#0011AE"/>
</g>
<defs>
<clipPath id="clip0_24_666">
<rect width="25" height="25" fill="white" transform="translate(0.179993 0.563873)"/>
</clipPath>
</defs>
</svg>
